<svg xmlns="http://www.w3.org/2000/svg">
    <!-- home-icon -->
    <symbol class="svg-icon" id="home" viewBox="0 0 20 20">
        <path fill="none"
            d="M13.22,2.984c-1.125,0-2.504,0.377-3.53,1.182C8.756,3.441,7.502,2.984,6.28,2.984c-2.6,0-4.714,2.116-4.714,4.716c0,0.32,0.032,0.644,0.098,0.96c0.799,4.202,6.781,7.792,7.46,8.188c0.193,0.111,0.41,0.168,0.627,0.168c0.187,0,0.376-0.041,0.55-0.127c0.011-0.006,1.349-0.689,2.91-1.865c0.021-0.016,0.043-0.031,0.061-0.043c0.021-0.016,0.045-0.033,0.064-0.053c3.012-2.309,4.6-4.805,4.6-7.229C17.935,5.1,15.819,2.984,13.22,2.984z M12.544,13.966c-0.004,0.004-0.018,0.014-0.021,0.018s-0.018,0.012-0.023,0.016c-1.423,1.076-2.674,1.734-2.749,1.771c0,0-6.146-3.576-6.866-7.363C2.837,8.178,2.811,7.942,2.811,7.7c0-1.917,1.554-3.47,3.469-3.47c1.302,0,2.836,0.736,3.431,1.794c0.577-1.121,2.161-1.794,3.509-1.794c1.914,0,3.469,1.553,3.469,3.47C16.688,10.249,14.474,12.495,12.544,13.966z">
        </path>
    </symbol>
    <!-- share-icon -->
    <symbol class="svg-icon" id="share" viewBox="0 0 20 20">
        <path
            d="M3.24,7.51c-0.146,0.142-0.146,0.381,0,0.523l5.199,5.193c0.234,0.238,0.633,0.064,0.633-0.262v-2.634c0.105-0.007,0.212-0.011,0.321-0.011c2.373,0,4.302,1.91,4.302,4.258c0,0.957-0.33,1.809-1.008,2.602c-0.259,0.307,0.084,0.762,0.451,0.572c2.336-1.195,3.73-3.408,3.73-5.924c0-3.741-3.103-6.783-6.916-6.783c-0.307,0-0.615,0.028-0.881,0.063V2.575c0-0.327-0.398-0.5-0.633-0.261L3.24,7.51 M4.027,7.771l4.301-4.3v2.073c0,0.232,0.21,0.409,0.441,0.366c0.298-0.056,0.746-0.123,1.184-0.123c3.402,0,6.172,2.709,6.172,6.041c0,1.695-0.718,3.24-1.979,4.352c0.193-0.51,0.293-1.045,0.293-1.602c0-2.76-2.266-5-5.046-5c-0.256,0-0.528,0.018-0.747,0.05C8.465,9.653,8.328,9.81,8.328,9.995v2.074L4.027,7.771z">
        </path>
    </symbol>
    <!-- tags-icon -->
    <symbol class="svg-icon" id="tags" viewBox="0 0 20 20">
        <path
            d="M17.35,2.219h-5.934c-0.115,0-0.225,0.045-0.307,0.128l-8.762,8.762c-0.171,0.168-0.171,0.443,0,0.611l5.933,5.934c0.167,0.171,0.443,0.169,0.612,0l8.762-8.763c0.083-0.083,0.128-0.192,0.128-0.307V2.651C17.781,2.414,17.587,2.219,17.35,2.219M16.916,8.405l-8.332,8.332l-5.321-5.321l8.333-8.332h5.32V8.405z M13.891,4.367c-0.957,0-1.729,0.772-1.729,1.729c0,0.957,0.771,1.729,1.729,1.729s1.729-0.772,1.729-1.729C15.619,5.14,14.848,4.367,13.891,4.367 M14.502,6.708c-0.326,0.326-0.896,0.326-1.223,0c-0.338-0.342-0.338-0.882,0-1.224c0.342-0.337,0.881-0.337,1.223,0C14.84,5.826,14.84,6.366,14.502,6.708">
        </path>
    </symbol>
</svg>