<svg xmlns="http://www.w3.org/2000/svg">
    <!-- home-icon -->
    <symbol class="svg-icon" id="home" viewBox="0 0 20 20">
        <path fill="none"
            d="M13.22,2.984c-1.125,0-2.504,0.377-3.53,1.182C8.756,3.441,7.502,2.984,6.28,2.984c-2.6,0-4.714,2.116-4.714,4.716c0,0.32,0.032,0.644,0.098,0.96c0.799,4.202,6.781,7.792,7.46,8.188c0.193,0.111,0.41,0.168,0.627,0.168c0.187,0,0.376-0.041,0.55-0.127c0.011-0.006,1.349-0.689,2.91-1.865c0.021-0.016,0.043-0.031,0.061-0.043c0.021-0.016,0.045-0.033,0.064-0.053c3.012-2.309,4.6-4.805,4.6-7.229C17.935,5.1,15.819,2.984,13.22,2.984z M12.544,13.966c-0.004,0.004-0.018,0.014-0.021,0.018s-0.018,0.012-0.023,0.016c-1.423,1.076-2.674,1.734-2.749,1.771c0,0-6.146-3.576-6.866-7.363C2.837,8.178,2.811,7.942,2.811,7.7c0-1.917,1.554-3.47,3.469-3.47c1.302,0,2.836,0.736,3.431,1.794c0.577-1.121,2.161-1.794,3.509-1.794c1.914,0,3.469,1.553,3.469,3.47C16.688,10.249,14.474,12.495,12.544,13.966z">
        </path>
    </symbol>
    <!-- share-icon -->
    <symbol class="svg-icon" id="shared" viewBox="0 0 20 20">
        <path fill="none" d="M16.227,16.672c0,0.49-0.396,0.889-0.889,0.889H2.883c-0.491,0-0.889-0.398-0.889-0.889V5.107c0-0.491,0.398-0.89,0.889-0.89h7.562V3.328H2.883c-0.982,0-1.779,0.796-1.779,1.779v11.565c0,0.982,0.796,1.779,1.779,1.779h12.455c0.982,0,1.779-0.797,1.779-1.779V10h-0.891V16.672z M15.338,1.549c-1.965,0-3.559,1.593-3.559,3.558c0,1.966,1.594,3.558,3.559,3.558s3.559-1.592,3.559-3.558C18.896,3.142,17.303,1.549,15.338,1.549z M15.338,7.776c-1.475,0-2.668-1.195-2.668-2.669c0-1.474,1.193-2.669,2.668-2.669s2.668,1.195,2.668,2.669C18.006,6.581,16.812,7.776,15.338,7.776z"></path>
    </symbol>
    <!-- tags-icon -->
    <symbol class="svg-icon" id="tags" viewBox="0 0 20 20">
        <path
            d="M17.35,2.219h-5.934c-0.115,0-0.225,0.045-0.307,0.128l-8.762,8.762c-0.171,0.168-0.171,0.443,0,0.611l5.933,5.934c0.167,0.171,0.443,0.169,0.612,0l8.762-8.763c0.083-0.083,0.128-0.192,0.128-0.307V2.651C17.781,2.414,17.587,2.219,17.35,2.219M16.916,8.405l-8.332,8.332l-5.321-5.321l8.333-8.332h5.32V8.405z M13.891,4.367c-0.957,0-1.729,0.772-1.729,1.729c0,0.957,0.771,1.729,1.729,1.729s1.729-0.772,1.729-1.729C15.619,5.14,14.848,4.367,13.891,4.367 M14.502,6.708c-0.326,0.326-0.896,0.326-1.223,0c-0.338-0.342-0.338-0.882,0-1.224c0.342-0.337,0.881-0.337,1.223,0C14.84,5.826,14.84,6.366,14.502,6.708">
        </path>
    </symbol>
    <!-- github icon -->
    <symbol class="svg-icon" id="github" viewBox="0 0 496 512">
    <path d="M165.9 397.4c0 2-2.3 3.6-5.2 3.6-3.3.3-5.6-1.3-5.6-3.6 0-2 2.3-3.6 5.2-3.6 3-.3 5.6 1.3 5.6 3.6zm-31.1-4.5c-.7 2 1.3 4.3 4.3 4.9 2.6 1 5.6 0 6.2-2s-1.3-4.3-4.3-5.2c-2.6-.7-5.5.3-6.2 2.3zm44.2-1.7c-2.9.7-4.9 2.6-4.6 4.9.3 2 2.9 3.3 5.9 2.6 2.9-.7 4.9-2.6 4.6-4.6-.3-1.9-3-3.2-5.9-2.9zM244.8 8C106.1 8 0 113.3 0 252c0 110.9 69.8 205.8 169.5 239.2 12.8 2.3 17.3-5.6 17.3-12.1 0-6.2-.3-40.4-.3-61.4 0 0-70 15-84.7-29.8 0 0-11.4-29.1-27.8-36.6 0 0-22.9-15.7 1.6-15.4 0 0 24.9 2 38.6 25.8 21.9 38.6 58.6 27.5 72.9 20.9 2.3-16 8.8-27.1 16-33.7-55.9-6.2-112.3-14.3-112.3-110.5 0-27.5 7.6-41.3 23.6-58.9-2.6-6.5-11.1-33.3 2.6-67.9 20.9-6.5 69 27 69 27 20-5.6 41.5-8.5 62.8-8.5s42.8 2.9 62.8 8.5c0 0 48.1-33.6 69-27 13.7 34.7 5.2 61.4 2.6 67.9 16 17.7 25.8 31.5 25.8 58.9 0 96.5-58.9 104.2-114.8 110.5 9.2 7.9 17 22.9 17 46.4 0 33.7-.3 75.4-.3 83.6 0 6.5 4.6 14.4 17.3 12.1C428.2 457.8 496 362.9 496 252 496 113.3 383.5 8 244.8 8zM97.2 352.9c-1.3 1-1 3.3.7 5.2 1.6 1.6 3.9 2.3 5.2 1 1.3-1 1-3.3-.7-5.2-1.6-1.6-3.9-2.3-5.2-1zm-10.8-8.1c-.7 1.3.3 2.9 2.3 3.9 1.6 1 3.6.7 4.3-.7.7-1.3-.3-2.9-2.3-3.9-2-.6-3.6-.3-4.3.7zm32.4 35.6c-1.6 1.3-1 4.3 1.3 6.2 2.3 2.3 5.2 2.6 6.5 1 1.3-1.3.7-4.3-1.3-6.2-2.2-2.3-5.2-2.6-6.5-1zm-11.4-14.7c-1.6 1-1.6 3.6 0 5.9 1.6 2.3 4.3 3.3 5.6 2.3 1.6-1.3 1.6-3.9 0-6.2-1.4-2.3-4-3.3-5.6-2z"></path>
    </symbol>
    <!-- Twitter icon -->
    <symbol class="svg-icon" id="twitter" viewBox="0 0 496 512">
    <path d="M459.37 151.716c.325 4.548.325 9.097.325 13.645 0 138.72-105.583 298.558-298.558 298.558-59.452 0-114.68-17.219-161.137-47.106 8.447.974 16.568 1.299 25.34 1.299 49.055 0 94.213-16.568 130.274-44.832-46.132-.975-84.792-31.188-98.112-72.772 6.498.974 12.995 1.624 19.818 1.624 9.421 0 18.843-1.3 27.614-3.573-48.081-9.747-84.143-51.98-84.143-102.985v-1.299c13.969 7.797 30.214 12.67 47.431 13.319-28.264-18.843-46.781-51.005-46.781-87.391 0-19.492 5.197-37.36 14.294-52.954 51.655 63.675 129.3 105.258 216.365 109.807-1.624-7.797-2.599-15.918-2.599-24.04 0-57.828 46.782-104.934 104.934-104.934 30.213 0 57.502 12.67 76.67 33.137 23.715-4.548 46.456-13.32 66.599-25.34-7.798 24.366-24.366 44.833-46.132 57.827 21.117-2.273 41.584-8.122 60.426-16.243-14.292 20.791-32.161 39.308-52.628 54.253z"></path>
    </symbol>
    <!-- Telegram icon -->
    <symbol class="svg-icon" id="telegram" viewBox="0 0 496 512">
    <path d="M248 8C111 8 0 119 0 256s111 248 248 248 248-111 248-248S385 8 248 8zm121.8 169.9l-40.7 191.8c-3 13.6-11.1 16.9-22.4 10.5l-62-45.7-29.9 28.8c-3.3 3.3-6.1 6.1-12.5 6.1l4.4-63.1 114.9-103.8c5-4.4-1.1-6.9-7.7-2.5l-142 89.4-61.2-19.1c-13.3-4.2-13.6-13.3 2.8-19.7l239.1-92.2c11.1-4 20.8 2.7 17.2 19.5z"></path>
    </symbol>
    <!-- QQ icon -->
    <symbol class="svg-icon" id="qq" viewBox="0 0 16 16">
    <path d="M 7.5 2 C 9.527344 2 10.769531 3.519531 10.769531 5.386719 C 10.769531 5.410156 11.421875 5.902344 11.179688 7.078125 C 11.996094 7.605469 12.023438 9.28125 12 9.75 C 11.992188 9.886719 12 10.375 11.75 10.5 C 11.703125 10.523438 11.65625 10.53125 11.609375 10.53125 C 11.417969 10.53125 11.25 10.351563 11.171875 10.316406 C 11.15625 10.601563 11.058594 10.90625 10.886719 11.195313 C 11.035156 11.378906 11.179688 11.636719 11.179688 11.941406 C 11.179688 12.6875 10.632813 13 9.589844 13 C 8.746094 13 7.839844 12.523438 7.625 12 L 7.375 12 C 7.160156 12.523438 6.253906 13 5.410156 13 C 4.367188 13 3.820313 12.6875 3.820313 11.941406 C 3.820313 11.628906 3.972656 11.367188 4.121094 11.183594 C 3.949219 10.898438 3.855469 10.59375 3.84375 10.308594 C 3.757813 10.347656 3.585938 10.53125 3.386719 10.53125 C 3.34375 10.53125 3.296875 10.519531 3.25 10.496094 C 3 10.375 3.007813 9.886719 3 9.75 C 2.976563 9.28125 3.003906 7.605469 3.820313 7.078125 C 3.578125 5.902344 4.230469 5.410156 4.230469 5.386719 C 4.230469 3.519531 5.472656 2 7.5 2 M 7.5 1 C 5.148438 1 3.410156 2.667969 3.242188 5.015625 C 2.90625 5.492188 2.746094 6.070313 2.769531 6.703125 C 1.949219 7.730469 1.980469 9.421875 2 9.800781 C 2.011719 10.117188 2.039063 11.011719 2.804688 11.394531 C 2.832031 11.40625 2.859375 11.421875 2.886719 11.433594 C 2.84375 11.601563 2.820313 11.769531 2.820313 11.941406 C 2.820313 12.5625 3.074219 14 5.410156 14 C 6.097656 14 6.898438 13.761719 7.5 13.332031 C 8.101563 13.761719 8.902344 14 9.589844 14 C 11.925781 14 12.179688 12.5625 12.179688 11.941406 C 12.179688 11.769531 12.15625 11.601563 12.113281 11.433594 C 12.140625 11.421875 12.167969 11.40625 12.195313 11.394531 C 12.960938 11.011719 12.988281 10.117188 12.996094 9.820313 C 13.015625 9.425781 13.050781 7.730469 12.230469 6.699219 C 12.253906 6.066406 12.09375 5.488281 11.757813 5.011719 C 11.589844 2.664063 9.851563 1 7.5 1 Z"/>
    </symbol>
    <!-- wechat -->
    <symbol class="svg-icon" id="wechat" viewBox="0 0 512 512">
    <path d="M256 32C114.6 32 0 125.1 0 240c0 49.6 21.4 95 57 130.7C44.5 421.1 2.7 466 2.2 466.5c-2.2 2.3-2.8 5.7-1.5 8.7S4.8 480 8 480c66.3 0 116-31.8 140.6-51.4 32.7 12.3 69 19.4 107.4 19.4 141.4 0 256-93.1 256-208S397.4 32 256 32zM128 272c-17.7 0-32-14.3-32-32s14.3-32 32-32 32 14.3 32 32-14.3 32-32 32zm128 0c-17.7 0-32-14.3-32-32s14.3-32 32-32 32 14.3 32 32-14.3 32-32 32zm128 0c-17.7 0-32-14.3-32-32s14.3-32 32-32 32 14.3 32 32-14.3 32-32 32z"></path>
    </symbol>
    <symbol class="svg-icon" id="zhihu" viewBox="0 0 24 24">
    <path d="M 5.0507812 2.6835938 L 3.0507812 8.6835938 L 4.9492188 9.3164062 L 5.7207031 7 L 7 7 L 7 10.222656 C 7 10.868331 6.9219874 11.418087 6.8710938 12 L 4 12 L 4 14 L 6.5429688 14 C 5.983285 16.269768 4.8214393 18.029123 2.5039062 19.353516 L 3.4960938 21.089844 C 6.4085349 19.425482 7.9221912 16.957288 8.5761719 14 L 11 14 L 11 12 L 8.8476562 12 C 8.900895 11.408696 9 10.844144 9 10.222656 L 9 7 L 11 7 L 11 5 L 6.3886719 5 L 6.9492188 3.3164062 L 5.0507812 2.6835938 z M 13 5 L 13 18 L 15 18 L 15 20.869141 L 19.302734 18 L 22 18 L 22 17 L 22 5 L 13 5 z M 15 7 L 20 7 L 20 16 L 18.697266 16 L 17 17.130859 L 17 16 L 15 16 L 15 7 z M 9.1777344 15.806641 L 7.5625 16.986328 L 10.191406 20.589844 L 11.808594 19.410156 L 9.1777344 15.806641 z"/>
    </symbol>
</svg>

